/* XPM */
static char * hzs_xpm[] = {
"32 32 11 1",
" 	c None",
".	c #FF0000",
"+	c #AA0000",
"@	c #000000",
"#	c #550000",
"$	c #E30000",
"%	c #390000",
"&	c #8E0000",
"*	c #1D0000",
"=	c #C70000",
"-	c #720000",
"................................",
"................................",
"................................",
"....+@..##.$@%..+@#%&.#*#*#$....",
"....+@..##.+%@..+@.+@.##.=@&....",
"....+@##*#.#$%+.+@#*+.##..+#....",
"....+@++%#+@#*%.+@-*..##..+#....",
"....+@..###&.$@++@.#%.##.=@+....",
"....=#..&&&$..#+=#.=#+&###+.....",
"................................",
"................................",
"...&##*%.@%#&.@%%&.#*#%=..%@$...",
".....+*=.@+...@++#.##.##..%@+...",
".....*#..@%#=.@%%$.#*#@..++-#...",
"....&%$..@-+$.@-&%=#%%-..@%%*=..",
"...+@$...@+...@+.@+##.@&+%..%#..",
"...&####.###&.###+.&&.&#&=..&-..",
"................................",
"................................",
"......+*#%&#**#&$-%#*&.@%%%=....",
"......#@.$..##..&@$.=@$@+$@+....",
"......&@*&..##..##...#+@+=%$....",
".......$-*=.##..#%...%+@%#=.....",
"......=.=*+.##..+@=.&@.@+.......",
"......&##&..&&...=###$.#=.......",
"................................",
"................................",
"................................",
"................................",
"................................",
"................................",
"................................"};
