#define pdbmenu.xbm_width 64
#define pdbmenu.xbm_height 64
static char pdbmenu.xbm_bits[] = {
   0x00, 0x00, 0x00, 0x00, 0x00, 0x00, 0x00, 0x00, 0x00, 0xf0, 0x7f, 0xe0,
   0x7f, 0x00, 0xff, 0x07, 0x00, 0xf0, 0xff, 0xe0, 0xff, 0x01, 0xff, 0x0f,
   0x00, 0x70, 0xe0, 0xe1, 0xe0, 0x03, 0x07, 0x1e, 0x00, 0x70, 0xc0, 0xe1,
   0x80, 0x03, 0x07, 0x1c, 0x00, 0x38, 0xc0, 0x71, 0x00, 0x87, 0x03, 0x1c,
   0x00, 0x38, 0xc0, 0x71, 0x00, 0x87, 0x03, 0x1c, 0x00, 0x38, 0xe0, 0x70,
   0x00, 0x87, 0x03, 0x1e, 0x00, 0x38, 0xf0, 0x70, 0x00, 0x87, 0x03, 0x0f,
   0x00, 0xfc, 0x7f, 0x38, 0x00, 0xc7, 0xff, 0x07, 0x00, 0xfc, 0x1f, 0x38,
   0x00, 0xc7, 0xff, 0x07, 0x00, 0x1c, 0x00, 0x38, 0x00, 0xc7, 0x01, 0x0e,
   0x00, 0x1c, 0x00, 0x38, 0x80, 0xc3, 0x01, 0x0e, 0x00, 0x0e, 0x00, 0x1c,
   0x80, 0xe3, 0x00, 0x0e, 0x00, 0x0e, 0x00, 0x1c, 0xc0, 0xe3, 0x00, 0x0e,
   0x00, 0x0e, 0x00, 0x1c, 0xe0, 0xe1, 0x00, 0x0f, 0x00, 0x0e, 0x00, 0x1c,
   0xf0, 0x70, 0x80, 0x07, 0x00, 0x07, 0x00, 0x0e, 0x7c, 0x70, 0xe0, 0x03,
   0x00, 0x07, 0x00, 0xfe, 0x3f, 0xf0, 0xff, 0x01, 0x00, 0x07, 0x00, 0xfe,
   0x0f, 0xf0, 0x7f, 0x00, 0x00, 0x00, 0x00, 0x00, 0x00, 0x00, 0x00, 0x00,
   0x00, 0x00, 0x00, 0x00, 0x00, 0x00, 0x00, 0x00, 0x00, 0x00, 0x00, 0x00,
   0x00, 0x00, 0x00, 0x00, 0x00, 0x00, 0x00, 0x00, 0x00, 0x00, 0x00, 0x00,
   0x00, 0x00, 0x00, 0x00, 0x00, 0x00, 0x00, 0x00, 0x00, 0x00, 0x00, 0x00,
   0x00, 0x00, 0x00, 0x00, 0x00, 0x00, 0x00, 0x00, 0x00, 0x00, 0x00, 0x00,
   0x00, 0x00, 0x00, 0x00, 0x00, 0x00, 0x00, 0x00, 0x00, 0x00, 0x00, 0x00,
   0x00, 0x00, 0x00, 0x00, 0x00, 0x00, 0x00, 0x00, 0x00, 0x00, 0x00, 0x00,
   0xf0, 0xff, 0x1f, 0xf0, 0xff, 0x1f, 0x00, 0xff, 0x10, 0x42, 0x18, 0x70,
   0x77, 0x17, 0x00, 0x89, 0x90, 0x10, 0x12, 0xd0, 0xdd, 0x1d, 0x00, 0x23,
   0x30, 0x84, 0x10, 0xf0, 0xee, 0x1e, 0x00, 0x11, 0x10, 0x21, 0x14, 0xb0,
   0xbb, 0x1b, 0x00, 0x45, 0x50, 0x08, 0x11, 0x70, 0x77, 0x17, 0x00, 0x89,
   0x10, 0x42, 0x18, 0xd0, 0xdd, 0x1d, 0x00, 0x23, 0x90, 0x10, 0x12, 0xf0,
   0xee, 0x1e, 0x00, 0x11, 0x30, 0x84, 0x10, 0xb0, 0xbb, 0x1b, 0x00, 0x45,
   0x10, 0x21, 0x14, 0x70, 0x77, 0x17, 0x00, 0x89, 0x50, 0x08, 0x11, 0xd0,
   0xdd, 0x1d, 0x00, 0x23, 0x10, 0x42, 0x18, 0xf0, 0xee, 0x1e, 0x00, 0x11,
   0x90, 0x10, 0x12, 0xb0, 0xbb, 0x1b, 0x00, 0x45, 0x30, 0x84, 0x10, 0x70,
   0x77, 0x17, 0x00, 0x89, 0x10, 0x21, 0x14, 0xd0, 0xdd, 0x1d, 0x00, 0x23,
   0xf0, 0xff, 0x1f, 0xf0, 0xff, 0x1f, 0x00, 0xff, 0xff, 0xff, 0xff, 0xff,
   0xff, 0xff, 0xff, 0xff, 0xff, 0xff, 0xff, 0xff, 0xff, 0xff, 0xff, 0xff,
   0xe0, 0x03, 0x00, 0xf0, 0x01, 0x00, 0xf0, 0x01, 0xf8, 0x0f, 0x00, 0xfc,
   0x07, 0x00, 0xfc, 0x07, 0xfc, 0x1f, 0x00, 0xfe, 0x0f, 0x00, 0xfe, 0x0f,
   0xfc, 0x1f, 0x00, 0xfe, 0x0f, 0x00, 0xfe, 0x0f, 0xfe, 0x3f, 0x00, 0xff,
   0x1f, 0x00, 0xff, 0x1f, 0xfe, 0x3f, 0x00, 0xff, 0x1f, 0x00, 0xff, 0x1f,
   0xfe, 0x3f, 0x00, 0xff, 0x1f, 0x00, 0xff, 0x1f, 0xfe, 0x3f, 0x00, 0xff,
   0x1f, 0x00, 0xff, 0x1f, 0xfe, 0x3f, 0x00, 0xff, 0x1f, 0x00, 0xff, 0x1f,
   0xfc, 0x1f, 0x00, 0xfe, 0x0f, 0x00, 0xfe, 0x0f, 0xfc, 0x1f, 0x00, 0xfe,
   0x0f, 0x00, 0xfe, 0x0f, 0xf8, 0x0f, 0x00, 0xfc, 0x07, 0x00, 0xfc, 0x07,
   0xe0, 0x03, 0x00, 0xf0, 0x01, 0x00, 0xf0, 0x01, 0x00, 0x00, 0x00, 0x00,
   0x00, 0x00, 0x00, 0x00, 0x00, 0x00, 0x00, 0x00, 0x00, 0x00, 0x00, 0x00,
   0x00, 0x00, 0x00, 0x00, 0x00, 0x00, 0x00, 0x00};
